<mxfile host="app.diagrams.net" agent="Mozilla/5.0 (Windows NT 10.0; Win64; x64; rv:135.0) Gecko/20100101 Firefox/135.0" version="24.7.12">
  <diagram name="Page-1" id="FZ6bclZdHtUJLNl6ZSUI">
    <mxGraphModel dx="1434" dy="754" grid="1" gridSize="10" guides="1" tooltips="1" connect="1" arrows="1" fold="1" page="1" pageScale="1" pageWidth="827" pageHeight="1169" math="0" shadow="0">
      <root>
        <mxCell id="0" />
        <mxCell id="1" parent="0" />
        <mxCell id="oJaSnlyF2t0a9jRHJImD-3" value="" style="edgeStyle=orthogonalEdgeStyle;rounded=0;orthogonalLoop=1;jettySize=auto;html=1;" edge="1" parent="1" source="oJaSnlyF2t0a9jRHJImD-1" target="oJaSnlyF2t0a9jRHJImD-2">
          <mxGeometry relative="1" as="geometry" />
        </mxCell>
        <mxCell id="oJaSnlyF2t0a9jRHJImD-1" value="&lt;div style=&quot;font-size: 14px;&quot;&gt;&lt;font style=&quot;font-size: 14px;&quot;&gt;Train MNIST model in Python&lt;/font&gt;&lt;/div&gt;&lt;div style=&quot;font-size: 14px;&quot;&gt;&lt;font style=&quot;font-size: 14px;&quot;&gt;&lt;i&gt;(Keras, PyTorch, Scikit-Learn...)&lt;/i&gt;&lt;/font&gt;&lt;/div&gt;" style="rounded=0;whiteSpace=wrap;html=1;" vertex="1" parent="1">
          <mxGeometry x="20" y="240" width="210" height="90" as="geometry" />
        </mxCell>
        <mxCell id="oJaSnlyF2t0a9jRHJImD-5" value="" style="edgeStyle=orthogonalEdgeStyle;rounded=0;orthogonalLoop=1;jettySize=auto;html=1;" edge="1" parent="1" source="oJaSnlyF2t0a9jRHJImD-2" target="oJaSnlyF2t0a9jRHJImD-4">
          <mxGeometry relative="1" as="geometry" />
        </mxCell>
        <mxCell id="oJaSnlyF2t0a9jRHJImD-2" value="&lt;font style=&quot;font-size: 14px;&quot;&gt;Save model in ONNX format&lt;/font&gt;" style="whiteSpace=wrap;html=1;rounded=0;" vertex="1" parent="1">
          <mxGeometry x="264" y="240" width="150" height="90" as="geometry" />
        </mxCell>
        <mxCell id="oJaSnlyF2t0a9jRHJImD-7" value="" style="edgeStyle=orthogonalEdgeStyle;rounded=0;orthogonalLoop=1;jettySize=auto;html=1;" edge="1" parent="1" source="oJaSnlyF2t0a9jRHJImD-4" target="oJaSnlyF2t0a9jRHJImD-6">
          <mxGeometry relative="1" as="geometry" />
        </mxCell>
        <mxCell id="oJaSnlyF2t0a9jRHJImD-4" value="&lt;div style=&quot;font-size: 14px;&quot;&gt;&lt;font style=&quot;font-size: 14px;&quot;&gt;Load model in browser&lt;/font&gt;&lt;/div&gt;&lt;div style=&quot;font-size: 14px;&quot;&gt;&lt;font style=&quot;font-size: 14px;&quot;&gt;&lt;i&gt;(with ONNX Web Runtime)&lt;/i&gt;&lt;/font&gt;&lt;/div&gt;" style="whiteSpace=wrap;html=1;rounded=0;" vertex="1" parent="1">
          <mxGeometry x="460" y="240" width="180" height="90" as="geometry" />
        </mxCell>
        <mxCell id="oJaSnlyF2t0a9jRHJImD-6" value="&lt;font style=&quot;font-size: 14px;&quot;&gt;Make prediction on drawing by user&lt;/font&gt;" style="whiteSpace=wrap;html=1;rounded=0;" vertex="1" parent="1">
          <mxGeometry x="680" y="240" width="120" height="90" as="geometry" />
        </mxCell>
      </root>
    </mxGraphModel>
  </diagram>
</mxfile>
